<?xml version="1.0" encoding="UTF-8" standalone="no"?>
<svg
   width="800"
   height="800"
   viewBox="6 5 22 24"
   fill="#000"
   version="1.1"
   id="svg10"
   sodipodi:docname="bong-svgrepo-com.svg"
   inkscape:version="1.4.2 (ebf0e940d0, 2025-05-08)"
   xmlns:inkscape="http://www.inkscape.org/namespaces/inkscape"
   xmlns:sodipodi="http://sodipodi.sourceforge.net/DTD/sodipodi-0.dtd"
  xmlns="http://www.w3.org/2000/svg"
  xmlns:svg="http://www.w3.org/2000/svg">
  <defs
     id="defs10">
    <mask
       id="bowl-clear"
       maskUnits="userSpaceOnUse"
       maskContentUnits="userSpaceOnUse"
       x="0"
       y="0"
       width="34"
       height="34">
      <rect
         x="0"
         y="0"
         width="34"
         height="34"
         fill="white"
         id="mask-bg" />
      <polygon
         points="24.767578,16.146484 25.474609,16.853516 26.888672,15.439453 24.060547,12.611328 22.646484,14.025391 23.353516,14.732422"
         fill="black"
         id="mask-bowl-window" />
    </mask>
  </defs>
  <sodipodi:namedview
     id="namedview10"
     pagecolor="#ffffff"
     bordercolor="#000000"
     borderopacity="0.25"
     inkscape:showpageshadow="2"
     inkscape:pageopacity="0.0"
     inkscape:pagecheckerboard="0"
     inkscape:deskcolor="#d1d1d1"
     inkscape:zoom="1.43"
     inkscape:cx="400"
     inkscape:cy="400"
     inkscape:window-width="2560"
     inkscape:window-height="1362"
     inkscape:window-x="0"
     inkscape:window-y="0"
     inkscape:window-maximized="1"
     inkscape:current-layer="svg10" />
  <g
      transform="translate(25.25 11.75) rotate(45) scale(0.0068)"
     id="g8">
    <g
       transform="translate(98.831637 0) scale(0.40094)"
       id="g7">
      <g
         fill-rule="nonzero"
         id="g6">
        <polygon
           points="392.07,0 383.5,29.11 383.5,873.74 392.07,882.29 784.13,650.54"
           fill="#343434"
           id="polygon1" />
         <polygon
            points="392.07,0 0,650.54 392.07,882.29 392.07,472.33"
            fill="#8C8C8C"
            id="polygon2" />
        <polygon
           points="392.07,956.52 387.24,962.41 387.24,1263.28 392.07,1277.38 784.37,724.89"
           fill="#3C3C3B"
           id="polygon3" />
        <polygon
           points="392.07,1277.38 392.07,956.52 0,724.89"
           fill="#8C8C8C"
           id="polygon4" />
        <polygon
           points="392.07,882.29 784.13,650.54 392.07,472.33"
           fill="#141414"
           id="polygon5" />
        <polygon
           points="0,650.54 392.07,882.29 392.07,472.33"
           fill="#393939"
           id="polygon6" />
      </g>
    </g>
  </g>
  <path
     mask="url(#bowl-clear)"
     d="M 13 7 L 13 14.677734 C 10.091057 15.875395 8 18.66082 8 22 C 8 24.23551 8.9251547 26.275654 10.414062 27.71875 L 10.705078 28 L 21.294922 28 L 21.585938 27.71875 C 23.074846 26.275654 24 24.23551 24 22 C 24 20.547126 23.531145 19.235307 22.853516 18.060547 L 24.767578 16.146484 L 25.474609 16.853516 L 26.888672 15.439453 L 24.060547 12.611328 L 22.646484 14.025391 L 23.353516 14.732422 L 21.632812 16.453125 C 20.882768 15.691855 20.003946 15.091076 19 14.677734 L 19 7 L 17 7 L 17 16.035156 L 17.714844 16.248047 C 19.55248 16.794887 21.014509 18.196819 21.650391 20 L 10.349609 20 C 10.985491 18.196819 12.44752 16.794887 14.285156 16.248047 L 15 16.035156 L 15 7 L 13 7 z M 10 22 L 22 22 C 22 23.560779 21.358174 24.943206 20.386719 26 L 11.613281 26 C 10.641826 24.943206 10 23.560779 10 22 z"
     id="path8" />
  <polygon
     points="24.767578,16.146484 25.474609,16.853516 26.888672,15.439453 24.060547,12.611328 22.646484,14.025391 23.353516,14.732422"
     fill="#d3d3d3"
     fill-opacity="0.4"
     stroke="#000"
     stroke-width="0.3"
     stroke-linejoin="round"
     id="bowl-window-outline" />
</svg>
